HIERARCHY
ROOT Hips
{
	OFFSET 0.00000 0.00000 0.00000
	CHANNELS 6 Xposition Yposition Zposition Zrotation Yrotation Xrotation 
	JOINT LHipJoint
	{
		OFFSET 0 0 0
		CHANNELS 3 Zrotation Yrotation Xrotation
		JOINT LeftHip
		{
			OFFSET 1.92384 -1.64427 0.83032
			CHANNELS 3 Zrotation Yrotation Xrotation
			JOINT LeftKnee
			{
				OFFSET 2.52872 -6.94761 0.00000
				CHANNELS 3 Zrotation Yrotation Xrotation
				JOINT LeftAnkle
				{
					OFFSET 2.51827 -6.91890 0.00000
					CHANNELS 3 Zrotation Yrotation Xrotation
					JOINT LeftToe
					{
						OFFSET 0.22757 -0.62524 2.06528
						CHANNELS 3 Zrotation Yrotation Xrotation
						End Site
						{
							OFFSET 0.00000 -0.00000 1.08218
						}
					}
				}
			}
		}
	}
	JOINT RHipJoint
	{
		OFFSET 0 0 0
		CHANNELS 3 Zrotation Yrotation Xrotation
		JOINT RightHip
		{
			OFFSET -2.09517 -1.64427 0.83032
			CHANNELS 3 Zrotation Yrotation Xrotation
			JOINT RightKnee
			{
				OFFSET -2.55173 -7.01082 0.00000
				CHANNELS 3 Zrotation Yrotation Xrotation
				JOINT RightAnkle
				{
					OFFSET -2.50265 -6.87598 0.00000
					CHANNELS 3 Zrotation Yrotation Xrotation
					JOINT RightToe
					{
						OFFSET -0.22612 -0.62126 1.98677
						CHANNELS 3 Zrotation Yrotation Xrotation
						End Site
						{
							OFFSET -0.00000 -0.00000 1.04433
						}
					}
				}
			}
		}
	}
	JOINT lowerback
	{
		OFFSET 0 0 0
		CHANNELS 3 Zrotation Yrotation Xrotation
		JOINT Chest
		{
			OFFSET 0.02839 1.68926 0.31690
			CHANNELS 3 Zrotation Yrotation Xrotation
			JOINT Chest2
			{
				OFFSET -0.01522 1.70183 0.21192
				CHANNELS 3 Zrotation Yrotation Xrotation
				JOINT lowerneck
				{
					OFFSET 0 0 0
					CHANNELS 3 Zrotation Yrotation Xrotation
					JOINT Neck
					{
						OFFSET -0.04523 1.88988 0.10630
						CHANNELS 3 Zrotation Yrotation Xrotation
						JOINT Head
						{
							OFFSET 0.05172 1.78070 -0.56858
							CHANNELS 3 Zrotation Yrotation Xrotation
							End Site
							{
								OFFSET 0.01532 1.90392 -0.20434
							}
						}
					}
				}
				JOINT LeftCollar
				{
					OFFSET 0 0 0
					CHANNELS 3 Zrotation Yrotation Xrotation
					JOINT LeftShoulder
					{
						OFFSET 3.25522 0.75486 0.22086
CHANNELS 3 Zrotation Xrotation Yrotation
						JOINT LeftElbow
						{
OFFSET 0 -4.856450 0.000000
CHANNELS 3 Zrotation Xrotation Yrotation
							JOINT LeftWrist
							{
OFFSET 0 -2.798740 0.000000
CHANNELS 3 Zrotation Xrotation Yrotation
								JOINT lhand
								{
									OFFSET 0 0 0
CHANNELS 3 Zrotation Xrotation Yrotation
									JOINT LFingers
									{
OFFSET 0 -0.573400 0.000000
CHANNELS 3 Zrotation Xrotation Yrotation
										End Site
										{
OFFSET 0 -0.462290 0.000000
										}
									}
								}
								JOINT LThumb
								{
OFFSET 0 0.000000 0.000000
CHANNELS 3 Zrotation Xrotation Yrotation
									End Site
									{
OFFSET 0 -0.469350 0.469350
									}
								}
							}
						}
					}
				}
				JOINT RightCollar
				{
					OFFSET 0 0 0
					CHANNELS 3 Zrotation Yrotation Xrotation
					JOINT RightShoulder
					{
						OFFSET -3.29079 0.52751 0.36356
CHANNELS 3 Zrotation Xrotation Yrotation
						JOINT RightElbow
						{
OFFSET 0 -4.670180 0.000000
CHANNELS 3 Zrotation Xrotation Yrotation
							JOINT RightWrist
							{
OFFSET 0 -2.655340 0.000000
CHANNELS 3 Zrotation Xrotation Yrotation
								JOINT rhand
								{
									OFFSET 0 0 0
CHANNELS 3 Zrotation Xrotation Yrotation
									JOINT RFingers
									{
OFFSET 0 -0.594070 0.000000
CHANNELS 3 Zrotation Xrotation Yrotation
										End Site
										{
OFFSET 0 -0.478950 0.000000
										}
									}
								}
								JOINT RThumb
								{
OFFSET 0 0.000000 0.000000
CHANNELS 3 Zrotation Xrotation Yrotation
									End Site
									{
OFFSET 0 -0.486270 0.486270
									}
								}
							}
						}
					}
				}
			}
		}
	}
}
MOTION
Frames: 10
Frame Time: 0.008333333333333333
-7.520065 17.327867 20.610403 1.970796 -0.053249 25.536361 0.000000 0.000000 0.000000 0.371095 -9.279375 -69.389860 26.271244 19.029559 108.625756 0.653104 -18.018587 30.408217 0.002213 0.269800 0.741346 0.000000 0.000000 0.000000 21.223695 22.525285 -30.030720 -2.119268 -9.110155 26.140458 -0.325863 -9.706184 -18.317051 -0.339923 -3.746481 10.364473 4.781326 1.251080 -15.750796 -0.233446 1.126333 -12.779199 -2.802013 0.214954 -4.782157 -2.752485 -0.846281 -16.136996 -2.011618 0.428949 36.295933 -0.293195 -0.490740 15.478887 0.000000 0.000000 0.000000 54.067689 29.965493 -116.408212 96.335560 -59.847766 65.483911 51.047019 46.686912 -24.274962 0.000000 0.000000 0.000000 -7.125000 0.000000 0.000000 28.990606 63.320600 -13.457338 0.000000 0.000000 0.000000 -49.429566 34.672153 116.363211 -80.471018 -59.654100 -51.757236 -64.029774 75.370868 25.700040 0.000000 0.000000 0.000000 7.125000 0.000000 0.000000 -60.269079 68.676359 39.050195
-7.555537 17.315769 20.590258 2.096798 0.312076 25.551846 0.000000 0.000000 0.000000 -1.970331 -7.752393 -72.053934 25.037649 19.379989 104.877115 -0.649565 -20.270848 23.043570 0.056022 -1.523857 -4.191538 0.000000 0.000000 0.000000 21.527962 21.157236 -30.843979 -2.221518 -9.312986 26.779493 -0.461672 -8.188980 -18.351030 -0.316671 -3.617499 10.003006 4.694361 1.252457 -15.758309 -0.297524 1.143526 -12.912707 -2.820411 0.222844 -4.925171 -3.006101 -1.088458 -16.040976 -2.035470 0.148461 36.075133 -0.304726 -0.643888 15.351628 0.000000 0.000000 0.000000 54.182159 29.957653 -116.622903 96.353872 -59.846887 65.499770 51.024839 46.587150 -24.258200 0.000000 0.000000 0.000000 -7.125000 0.000000 0.000000 28.943286 63.293065 -13.414823 0.000000 0.000000 0.000000 -49.448835 34.895336 116.363160 -80.446618 -59.652297 -51.736170 -64.094652 75.020191 25.262033 0.000000 0.000000 0.000000 7.125000 0.000000 0.000000 -59.557790 68.262921 37.989642
-7.588017 17.277580 20.547168 2.110527 0.974994 25.619142 0.000000 0.000000 0.000000 -3.154043 -6.372454 -75.656240 23.349336 19.728675 99.835492 -0.964584 -20.352868 19.535892 0.138191 -2.395260 -6.599446 0.000000 0.000000 0.000000 21.746659 20.339193 -32.019087 -2.434817 -9.718467 28.069760 -0.591077 -7.162704 -18.868895 -0.312388 -3.593065 9.934585 4.794010 1.236496 -15.571751 -0.260489 1.129195 -12.912712 -2.841233 0.210261 -5.025436 -3.170728 -1.236154 -15.967944 -2.023950 -0.040740 35.386500 -0.293932 -0.732933 15.005626 0.000000 0.000000 0.000000 54.154380 29.855304 -116.832287 96.284452 -59.850210 65.439762 51.119373 46.726151 -24.335723 0.000000 0.000000 0.000000 -7.125000 0.000000 0.000000 29.149485 63.417467 -13.603540 0.000000 0.000000 0.000000 -49.521954 34.984542 116.242385 -80.418846 -59.650233 -51.712261 -63.770297 74.436387 25.042408 0.000000 0.000000 0.000000 7.125000 0.000000 0.000000 -58.157888 67.982161 36.550358
-7.624348 17.259112 20.505682 2.239606 2.006033 25.067360 0.000000 0.000000 0.000000 -1.291734 -6.517012 -77.777619 21.227004 19.963285 93.589742 -1.241348 -19.612150 11.410619 0.350988 -3.805624 -10.530600 0.000000 0.000000 0.000000 21.788998 20.731618 -31.596526 -2.530190 -9.892582 28.629668 -0.595357 -8.302098 -19.891001 -0.360591 -3.857518 10.676089 4.834087 1.101248 -15.041815 -0.182187 0.976602 -12.567784 -2.801297 0.145642 -4.932815 -3.272672 -1.347151 -15.781965 -2.028743 -0.198068 34.490059 -0.291296 -0.797695 14.544784 0.000000 0.000000 0.000000 54.172211 29.612790 -117.014033 96.261292 -59.851310 65.419695 51.515353 47.634346 -24.667613 0.000000 0.000000 0.000000 -7.125000 0.000000 0.000000 30.037082 63.945795 -14.425180 0.000000 0.000000 0.000000 -49.540924 34.920933 115.879942 -80.555986 -59.660281 -51.830572 -63.693232 74.118583 24.854292 0.000000 0.000000 0.000000 7.125000 0.000000 0.000000 -57.562732 67.776980 35.845848
-7.638947 17.268725 20.455992 2.594444 2.565725 24.996269 0.000000 0.000000 0.000000 3.622063 -7.571090 -78.714097 18.897538 19.969995 86.774912 -0.453164 -12.931799 -0.826565 0.436312 -4.238354 -11.748279 0.000000 0.000000 0.000000 21.628664 19.952161 -31.970556 -2.542229 -9.914240 28.699620 -0.615702 -8.150837 -19.965975 -0.331507 -3.700344 10.235137 4.827668 1.092214 -14.809097 -0.138049 0.982273 -12.462947 -2.752292 0.154755 -4.938837 -3.406810 -1.407017 -15.315042 -2.218821 -0.214179 33.754055 -0.334050 -0.832845 14.106908 0.000000 0.000000 0.000000 53.894540 29.697913 -116.893328 96.168835 -59.855702 65.339803 52.031994 48.226049 -25.015255 0.000000 0.000000 0.000000 -7.125000 0.000000 0.000000 31.184893 64.529828 -15.450234 0.000000 0.000000 0.000000 -49.644384 34.408933 116.128478 -80.416338 -59.650106 -51.710040 -63.824901 74.846297 25.161224 0.000000 0.000000 0.000000 7.125000 0.000000 0.000000 -58.555333 68.111342 37.014759
-7.643990 17.322433 20.411012 3.145739 2.509348 24.928643 0.000000 0.000000 0.000000 10.306573 -9.130084 -77.113755 16.274750 19.663927 79.049112 0.502517 -2.190751 -12.817879 0.087605 -1.907639 -5.250396 0.000000 0.000000 0.000000 21.157571 19.399750 -31.734722 -2.376504 -9.609830 27.722409 -0.538974 -8.348940 -19.344103 -0.299050 -3.516292 9.719716 4.822131 1.226894 -14.533949 -0.311564 1.175441 -12.484753 -2.916880 0.241526 -5.090121 -3.388885 -1.411575 -14.769949 -2.400560 -0.199968 33.324598 -0.397017 -0.837932 13.794690 0.000000 0.000000 0.000000 53.782144 30.113113 -116.050197 96.741261 -59.827629 65.834705 52.002831 48.592850 -24.826140 0.000000 0.000000 0.000000 -7.125000 0.000000 0.000000 31.003431 64.293590 -15.182956 0.000000 0.000000 0.000000 -49.457848 34.110581 116.786677 -79.939646 -59.614044 -51.298793 -64.277578 76.203207 25.842751 0.000000 0.000000 0.000000 7.125000 0.000000 0.000000 -61.326702 68.853483 40.122568
-7.661844 17.408359 20.390569 3.641783 2.042223 24.733566 0.000000 0.000000 0.000000 17.798611 -11.104563 -73.033517 13.629658 18.996953 71.069381 0.730771 6.324079 -19.669954 0.056547 1.512239 4.159812 0.000000 0.000000 0.000000 20.503395 20.295807 -30.146974 -2.021164 -8.909671 25.513498 -0.299193 -10.113985 -18.451546 -0.333935 -3.713677 10.272494 4.815619 1.344577 -14.511758 -0.618557 1.323927 -12.509864 -3.224449 0.300854 -5.111733 -3.060317 -1.280604 -14.312749 -2.397402 -0.131943 33.266949 -0.437285 -0.762431 13.663372 0.000000 0.000000 0.000000 54.257769 30.699000 -115.311681 98.175488 -59.745891 67.074108 51.586345 48.269269 -24.372402 0.000000 0.000000 0.000000 -7.125000 0.000000 0.000000 29.973410 63.612095 -14.159403 0.000000 0.000000 0.000000 -49.135106 34.031306 117.358586 -79.412275 -59.572168 -50.843929 -64.686345 76.688327 26.156635 0.000000 0.000000 0.000000 7.125000 0.000000 0.000000 -63.285066 69.204813 42.168953
-7.693263 17.502659 20.408436 4.038780 1.182442 24.474842 0.000000 0.000000 0.000000 23.728313 -12.637190 -68.071586 11.832986 18.318885 65.458052 0.534793 11.957440 -22.847503 0.546664 4.732604 13.148197 0.000000 0.000000 0.000000 20.039542 21.471740 -27.633078 -1.554396 -7.868165 22.314656 -0.027342 -12.051755 -17.506634 -0.416125 -4.140660 11.472760 4.604422 1.349805 -14.823564 -0.863956 1.324591 -12.629171 -3.362702 0.300543 -5.075490 -2.618846 -0.975134 -13.927402 -2.265957 0.132052 33.655824 -0.422923 -0.578256 13.743279 0.000000 0.000000 0.000000 54.961696 31.500430 -115.007634 99.785935 -59.635005 68.464477 51.118905 47.410725 -23.915927 0.000000 0.000000 0.000000 -7.125000 0.000000 0.000000 28.900818 62.907397 -13.132417 0.000000 0.000000 0.000000 -48.908773 34.108344 117.603093 -79.198572 -59.554539 -50.659660 -65.082065 76.664062 26.185898 0.000000 0.000000 0.000000 7.125000 0.000000 0.000000 -64.613722 69.279128 43.383386
-7.727571 17.566814 20.434699 4.312885 0.046851 24.404190 0.000000 0.000000 0.000000 26.124759 -12.105969 -64.372037 11.572693 18.204083 64.627917 0.192250 14.045766 -21.988688 1.170374 6.866616 19.320864 0.000000 0.000000 0.000000 19.748720 22.186061 -25.939182 -1.240751 -7.063095 19.902275 0.147270 -12.854817 -16.292718 -0.411808 -4.119500 11.413145 4.147013 1.258578 -15.181147 -0.966067 1.224467 -12.859290 -3.221860 0.267554 -5.151240 -2.025397 -0.560342 -13.852611 -2.354233 0.607748 34.173328 -0.494277 -0.316409 13.954575 0.000000 0.000000 0.000000 55.385272 31.923002 -115.178043 101.011707 -59.536823 69.521531 50.797600 46.737041 -23.735196 0.000000 0.000000 0.000000 -7.125000 0.000000 0.000000 28.264823 62.583882 -12.603606 0.000000 0.000000 0.000000 -48.869943 34.532422 117.427622 -79.004337 -59.538181 -50.492258 -66.914710 80.288394 27.418721 0.000000 0.000000 0.000000 7.125000 0.000000 0.000000 -73.800311 70.375895 52.938149
-7.770429 17.625145 20.465112 4.760289 -1.462067 24.426551 0.000000 0.000000 0.000000 24.759782 -9.412339 -62.060525 13.019735 18.788357 69.185868 -0.295069 15.037918 -17.841646 1.799553 8.434220 24.041629 0.000000 0.000000 0.000000 19.147112 23.018070 -24.615661 -1.012738 -6.402679 17.957511 0.267603 -13.215259 -15.026803 -0.407251 -4.096857 11.349405 3.192790 1.107888 -15.704855 -1.103643 1.090150 -13.049416 -2.840750 0.255296 -5.098210 -1.365973 -0.118917 -13.840331 -2.448113 1.104061 34.554564 -0.575211 -0.036686 14.126382 0.000000 0.000000 0.000000 55.652518 31.742643 -115.784655 102.067747 -59.442495 70.431433 50.814617 46.211490 -23.805388 0.000000 0.000000 0.000000 -7.125000 0.000000 0.000000 28.332165 62.674991 -12.696975 0.000000 0.000000 0.000000 -48.793654 35.021929 117.131503 -78.709744 -59.512847 -50.238381 -66.936606 80.182589 27.335073 0.000000 0.000000 0.000000 7.125000 0.000000 0.000000 -73.662991 70.311606 52.730844
